<?xml version="1.0" encoding="UTF-8" standalone="no"?>
<!-- Created with Inkscape (http://www.inkscape.org/) -->

<svg
   width="512"
   height="512"
   viewBox="0 0 512 512"
   version="1.1"
   id="svg1"
   xml:space="preserve"
   inkscape:version="1.3.2 (091e20e, 2023-11-25, custom)"
   sodipodi:docname="remote_bmc.svg"
   inkscape:export-filename="remote_bmc.png"
   inkscape:export-xdpi="96"
   inkscape:export-ydpi="96"
   xmlns:inkscape="http://www.inkscape.org/namespaces/inkscape"
   xmlns:sodipodi="http://sodipodi.sourceforge.net/DTD/sodipodi-0.dtd"
   xmlns="http://www.w3.org/2000/svg"
   xmlns:svg="http://www.w3.org/2000/svg"><sodipodi:namedview
     id="namedview1"
     pagecolor="#ffffff"
     bordercolor="#000000"
     borderopacity="0.25"
     inkscape:showpageshadow="2"
     inkscape:pageopacity="0.0"
     inkscape:pagecheckerboard="0"
     inkscape:deskcolor="#d1d1d1"
     inkscape:document-units="px"
     inkscape:zoom="0.34950226"
     inkscape:cx="-287.55179"
     inkscape:cy="340.48421"
     inkscape:window-width="1536"
     inkscape:window-height="890"
     inkscape:window-x="-6"
     inkscape:window-y="-6"
     inkscape:window-maximized="1"
     inkscape:current-layer="layer1" /><defs
     id="defs1"><clipPath
       clipPathUnits="userSpaceOnUse"
       id="clipPath1"><rect
         style="fill:#ffffff;stroke-width:4.24179"
         id="rect2"
         width="560.3728"
         height="544.11694"
         x="696.39642"
         y="179.22279" /></clipPath><clipPath
       clipPathUnits="userSpaceOnUse"
       id="clipPath3"><rect
         style="fill:#ffffff"
         id="rect4"
         width="635.27924"
         height="542.21283"
         x="218.50369"
         y="216.4805" /></clipPath></defs><g
     inkscape:groupmode="layer"
     id="layer2"
     inkscape:label="图层 2" /><g
     inkscape:label="图层 1"
     inkscape:groupmode="layer"
     id="layer1"><rect
       style="fill:#ffffff;stroke:#ffffff;stroke-width:34.2567;stroke-linecap:square;stroke-linejoin:miter;stroke-miterlimit:10;stroke-dasharray:none;stroke-opacity:1;paint-order:stroke fill markers"
       id="rect6"
       width="345.38223"
       height="232.18001"
       x="123.64563"
       y="94.242271"
       ry="5.1980424"
       rx="25.990286" /><rect
       style="fill:#ffffff;stroke:#ffffff;stroke-width:23.6872;stroke-linecap:square;stroke-linejoin:miter;stroke-miterlimit:10;stroke-dasharray:none;stroke-opacity:1;paint-order:stroke fill markers"
       id="rect8"
       width="133.01262"
       height="8.2591734"
       x="230.40799"
       y="417.01291"
       rx="1.0814035"
       ry="0.58994097" /><rect
       style="fill:#ffffff;stroke:#ffffff;stroke-width:34.2567;stroke-linecap:square;stroke-linejoin:miter;stroke-miterlimit:10;stroke-dasharray:none;stroke-opacity:1;paint-order:stroke fill markers"
       id="rect7"
       width="20.792259"
       height="61.221619"
       x="285.36307"
       y="347.21454"
       rx="9.8185663"
       ry="0" /><text
       xml:space="preserve"
       style="font-size:141.537px;fill:#008080;stroke-width:1.06153"
       x="170.15923"
       y="228.53685"
       id="text6"
       inkscape:label="text6"
       transform="scale(0.89723614,1.1145338)"><tspan
         sodipodi:role="line"
         id="tspan6"
         style="font-style:normal;font-variant:normal;font-weight:bold;font-stretch:normal;font-size:141.537px;font-family:Tahoma;-inkscape-font-specification:'Tahoma Bold';fill:#008080;stroke-width:1.06153"
         x="170.15923"
         y="228.53685">BMC</tspan></text><path
       d="m 265.71339,350.72234 v 53.70558 h -42.88068 c -3.70903,0 -6.71319,3.00416 -6.71319,6.71319 v 20.1396 c 0,3.70904 3.00416,6.7132 6.71319,6.7132 h 147.69034 c 3.70904,0 6.7132,-3.00416 6.7132,-6.7132 v -20.1396 c 0,-3.70903 -3.00416,-6.71319 -6.7132,-6.71319 h -42.96446 v -53.70558 h 136.46373 c 7.25025,0 14.19846,-2.88669 19.334,-8.00557 5.11879,-5.13555 8.00558,-12.08376 8.00558,-19.33401 V 102.82039 c 0,-7.250252 -2.8867,-14.198462 -8.00558,-19.334001 -5.13554,-5.118791 -12.08375,-8.00557 -19.35075,-8.00557 h -334.6846 c -7.25025,0 -14.19846,2.886699 -19.334,8.00557 -5.11879,5.135539 -8.00557,12.083749 -8.00557,19.334001 v 220.56237 c 0,7.25025 2.8867,14.19846 8.00557,19.33401 5.13554,5.11879 12.08375,8.00557 19.35076,8.00557 z m 55.14918,67.13197 h 42.93096 v 6.7132 H 229.52959 v -6.7132 z m -32.57565,-67.13197 h -9.16346 v 53.70558 h 34.99241 V 350.72234 Z M 477.91917,102.82168 v 220.56237 c 0,3.67548 -1.4601,7.21674 -4.07826,9.835 -2.60137,2.61817 -6.14263,4.07827 -9.835,4.07827 h -334.6846 c -3.67547,0 -7.21673,-1.4601 -9.83499,-4.07827 -2.61812,-2.60137 -4.07827,-6.14263 -4.07827,-9.835 V 102.82168 c 0,-3.675477 1.4601,-7.216737 4.07827,-9.834996 2.60137,-2.618169 6.14263,-4.078267 9.83499,-4.078267 h 334.6846 c 3.67548,0 7.21674,1.460098 9.835,4.078267 2.61816,2.601371 4.07826,6.14263 4.07826,9.834996 z M 175.82743,330.58489 h 13.42639 c 3.70904,0 6.7132,-3.00416 6.7132,-6.71319 0,-3.70904 -3.00416,-6.7132 -6.7132,-6.7132 h -13.42639 c -3.70904,0 -6.7132,3.00416 -6.7132,6.7132 0,3.70903 3.00416,6.71319 6.7132,6.71319 z m 33.566,0 h 33.56598 c 3.70904,0 6.7132,-3.00416 6.7132,-6.71319 0,-3.70904 -3.00416,-6.7132 -6.7132,-6.7132 h -33.56598 c -3.70905,0 -6.71321,3.00416 -6.71321,6.7132 0,3.70903 3.00416,6.71319 6.71321,6.71319 z M 471.21027,102.33618 c 0,-3.709034 -3.00416,-6.713195 -6.7132,-6.713195 H 128.8372 c -3.70904,0 -6.7132,3.004161 -6.7132,6.713195 V 303.7321 c 0,3.70904 3.00416,6.7132 6.7132,6.7132 h 335.65987 c 3.70904,0 6.7132,-3.00416 6.7132,-6.7132 z m -13.42639,6.7132 V 297.0189 H 135.5504 V 109.04938 Z"
       fill-rule="evenodd"
       id="path1-5"
       style="stroke-width:4.29645" /><g
       id="g6"
       transform="matrix(4.7565925,0,0,3.757404,520.23028,249.79554)"
       style="fill:#008000"
       inkscape:groupmode="layer"><path
         d="m -64.450116,-1.0580931 -16.83999,-14.5785809 c -0.270495,-0.229032 -0.628429,-0.268764 -0.9315,-0.100498 -0.298969,0.175281 -0.488112,0.528178 -0.486077,0.916105 v 6.9623239 c -15.723183,2.269322 -23.465827,15.1164472 -23.022747,38.2135111 0.008,0.493123 0.32134,0.90677 0.74437,0.988559 0.0468,0.0071 0.0935,0.01166 0.14034,0.0092 0.37421,0 0.70777,-0.268767 0.83388,-0.670742 4.234361,-13.405316 10.63902,-20.337127 21.304069,-22.9732037 V 14.34364 c -0.0041,0.385617 0.187112,0.738533 0.488112,0.906772 0.298969,0.175282 0.660969,0.140223 0.929469,-0.09349 L -64.4502,0.57116486 c 0.221684,-0.191639 0.353883,-0.493125 0.353883,-0.813318 0,-0.322515 -0.132199,-0.624019 -0.353883,-0.81565296 z"
         id="path1"
         style="fill:#008000;stroke:#ffffff;stroke-width:3.9606;stroke-linecap:square;stroke-linejoin:miter;stroke-miterlimit:10;stroke-dasharray:none;stroke-opacity:1;paint-order:stroke fill markers" /></g></g></svg>
