<?xml version="1.0" encoding="UTF-8" standalone="no"?>
<!-- Created with Inkscape (http://www.inkscape.org/) -->

<svg
   width="512"
   height="512"
   viewBox="0 0 512 512"
   version="1.1"
   id="svg1"
   xml:space="preserve"
   inkscape:version="1.3.2 (091e20e, 2023-11-25, custom)"
   sodipodi:docname="remote_bmc.svg"
   inkscape:export-filename="remote_bmc.png"
   inkscape:export-xdpi="96"
   inkscape:export-ydpi="96"
   xmlns:inkscape="http://www.inkscape.org/namespaces/inkscape"
   xmlns:sodipodi="http://sodipodi.sourceforge.net/DTD/sodipodi-0.dtd"
   xmlns="http://www.w3.org/2000/svg"
   xmlns:svg="http://www.w3.org/2000/svg"><sodipodi:namedview
     id="namedview1"
     pagecolor="#ffffff"
     bordercolor="#000000"
     borderopacity="0.25"
     inkscape:showpageshadow="2"
     inkscape:pageopacity="0.0"
     inkscape:pagecheckerboard="0"
     inkscape:deskcolor="#d1d1d1"
     inkscape:document-units="px"
     inkscape:zoom="0.49427084"
     inkscape:cx="81.938882"
     inkscape:cy="499.72602"
     inkscape:window-width="1536"
     inkscape:window-height="890"
     inkscape:window-x="-6"
     inkscape:window-y="-6"
     inkscape:window-maximized="1"
     inkscape:current-layer="layer1" /><defs
     id="defs1"><clipPath
       clipPathUnits="userSpaceOnUse"
       id="clipPath1"><rect
         style="fill:#ffffff;stroke-width:4.24179"
         id="rect2"
         width="560.3728"
         height="544.11694"
         x="696.39642"
         y="179.22279" /></clipPath><clipPath
       clipPathUnits="userSpaceOnUse"
       id="clipPath3"><rect
         style="fill:#ffffff"
         id="rect4"
         width="635.27924"
         height="542.21283"
         x="218.50369"
         y="216.4805" /></clipPath></defs><g
     inkscape:groupmode="layer"
     id="layer2"
     inkscape:label="图层 2" /><g
     inkscape:label="图层 1"
     inkscape:groupmode="layer"
     id="layer1"><rect
       style="fill:#ffffff;stroke:#ffffff;stroke-width:43.3919;stroke-linecap:square;stroke-linejoin:miter;stroke-miterlimit:10;stroke-dasharray:none;stroke-opacity:1;paint-order:stroke fill markers"
       id="rect6"
       width="435.60364"
       height="295.36438"
       x="47.70171"
       y="91.779198"
       ry="6.6126127"
       rx="32.779518" /><text
       xml:space="preserve"
       style="font-size:204.894px;fill:#008080;stroke-width:1.53672"
       x="89.320839"
       y="264.70236"
       id="text6"
       inkscape:label="text6"
       transform="scale(0.82324027,1.2147122)"><tspan
         sodipodi:role="line"
         id="tspan6"
         style="font-style:normal;font-variant:normal;font-weight:bold;font-stretch:normal;font-size:204.894px;font-family:Tahoma;-inkscape-font-specification:'Tahoma Bold';fill:#008080;stroke-width:1.53672"
         x="89.320839"
         y="264.70236">BMC</tspan></text><path
       d="m 476.99222,418.05652 c 9.14417,0 17.9074,-3.67226 24.38446,-10.18417 6.45593,-6.53311 10.09681,-15.37217 10.09681,-24.59547 V 102.69172 c 0,-9.223298 -3.64077,-18.062361 -10.09681,-24.595461 -6.47706,-6.511794 -15.24029,-10.184167 -24.40559,-10.184167 H 54.859577 c -9.144174,0 -17.907408,3.672271 -24.384463,10.184167 -6.455929,6.5331 -10.096799,15.372163 -10.096799,24.595461 v 280.58516 c 0,9.2233 3.640769,18.06236 10.096799,24.59547 6.477055,6.51179 15.240289,10.18417 24.405601,10.18417 z m 17.52701,-315.36316 v 280.58516 c 0,4.67571 -1.84151,9.18067 -5.14359,12.51145 -3.28091,3.33066 -7.74722,5.18811 -12.40412,5.18811 H 54.860005 c -4.635583,0 -9.101897,-1.85745 -12.404103,-5.18811 -3.30203,-3.3093 -5.143603,-7.81426 -5.143603,-12.51145 V 102.69336 c 0,-4.6757 1.84151,-9.180662 5.143603,-12.511441 3.280904,-3.330665 7.747218,-5.188107 12.404103,-5.188107 H 476.97152 c 4.63559,0 9.10191,1.857442 12.40412,5.188107 3.30208,3.309295 5.14359,7.814256 5.14359,12.511441 z m -8.46142,-0.61762 c 0,-4.718391 -3.78891,-8.54009 -8.46683,-8.54009 H 54.249435 c -4.677922,0 -8.466834,3.821699 -8.466834,8.54009 v 278.96364 c 0,4.7184 3.788912,8.5401 8.466834,8.5401 H 477.59098 c 4.67792,0 8.46683,-3.8217 8.46683,-8.5401 z m -16.93365,8.5401 V 372.49928 H 62.716269 V 110.61584 Z"
       fill-rule="evenodd"
       id="path1-5"
       style="stroke-width:5.44217"
       clip-path="none"
       sodipodi:nodetypes="scsscsscsscsssscsscsscsscsssssssssssssss" /><rect
       style="display:none;fill:#ff0000;stroke:none;stroke-width:38;stroke-linecap:square;stroke-miterlimit:10;paint-order:stroke fill markers"
       id="rect3"
       width="645.94348"
       height="380.36417"
       x="-65.72213"
       y="38.131905"
       rx="1.2758409"
       ry="1.2868807" /><g
       id="g6"
       transform="matrix(4.7565925,0,0,3.757404,520.23028,249.79554)"
       style="display:inline;fill:#008000"
       inkscape:groupmode="layer"><path
         d="M -55.072023,23.203572 -76.310986,4.6576462 c -0.341155,-0.2913597 -0.792589,-0.3419042 -1.174829,-0.1278471 -0.377066,0.2229811 -0.615617,0.6719141 -0.61305,1.16541 v 8.8570169 c -19.830423,2.886884 -29.595595,19.230166 -29.036765,48.612754 0.01,0.62732 0.40528,1.153534 0.9388,1.257581 0.059,0.009 0.11794,0.01484 0.17701,0.01169 0.47196,0 0.89265,-0.341906 1.05171,-0.853273 5.340459,-17.053374 13.418141,-25.871577 26.869134,-29.225022 v 8.440691 c -0.0052,0.490558 0.235989,0.939514 0.615618,1.153537 0.377065,0.222983 0.833628,0.178383 1.172265,-0.118932 l 21.238964,-18.555057 c 0.279592,-0.24379 0.446324,-0.627321 0.446324,-1.03465 0,-0.410282 -0.166732,-0.793836 -0.446324,-1.03762 z"
         id="path1"
         style="fill:#008000;stroke:#ffffff;stroke-width:5.01676;stroke-linecap:square;stroke-linejoin:miter;stroke-miterlimit:10;stroke-dasharray:none;stroke-opacity:1;paint-order:stroke fill markers" /></g></g></svg>
